<svg xmlns="http://www.w3.org/2000/svg" fill="none" viewBox="0 0 28 56"><path fill="#fff" d="M8.4.656h11.2c1.48 0 2.553 0 3.395.07.835.068 1.387.2 1.84.431a4.6 4.6 0 0 1 2.008 2.007c.23.454.363 1.006.431 1.84.07.843.07 1.915.07 3.396v39.2c0 1.48 0 2.553-.07 3.395-.068.835-.2 1.387-.431 1.84a4.6 4.6 0 0 1-2.007 2.008c-.454.23-1.006.363-1.84.431-.843.07-1.915.07-3.396.07H8.4c-1.48 0-2.553 0-3.395-.07-.835-.068-1.387-.2-1.84-.431a4.6 4.6 0 0 1-2.008-2.007c-.23-.454-.363-1.006-.431-1.84-.07-.843-.07-1.915-.07-3.396V8.4c0-1.48 0-2.553.07-3.395.068-.835.2-1.387.431-1.84a4.6 4.6 0 0 1 2.007-2.008C3.618.927 4.17.794 5.004.726 5.848.656 6.92.656 8.4.656"/><path stroke="#007B2D" stroke-width="1.313" d="M8.4.656h11.2c1.48 0 2.553 0 3.395.07.835.068 1.387.2 1.84.431a4.6 4.6 0 0 1 2.008 2.007c.23.454.363 1.006.431 1.84.07.843.07 1.915.07 3.396v39.2c0 1.48 0 2.553-.07 3.395-.068.835-.2 1.387-.431 1.84a4.6 4.6 0 0 1-2.007 2.008c-.454.23-1.006.363-1.84.431-.843.07-1.915.07-3.396.07H8.4c-1.48 0-2.553 0-3.395-.07-.835-.068-1.387-.2-1.84-.431a4.6 4.6 0 0 1-2.008-2.007c-.23-.454-.363-1.006-.431-1.84-.07-.843-.07-1.915-.07-3.396V8.4c0-1.48 0-2.553.07-3.395.068-.835.2-1.387.431-1.84a4.6 4.6 0 0 1 2.007-2.008C3.618.927 4.17.794 5.004.726 5.848.656 6.92.656 8.4.656Z"/><path fill="#DDEFE3" d="M5.25 48.125c0-.815 0-1.223.133-1.545a1.75 1.75 0 0 1 .947-.947c.322-.133.73-.133 1.545-.133h12.25c.815 0 1.223 0 1.545.133.428.178.77.518.947.947.133.322.133.73.133 1.545s0 1.223-.133 1.545a1.75 1.75 0 0 1-.947.947c-.322.133-.73.133-1.545.133H7.875c-.815 0-1.223 0-1.545-.133a1.75 1.75 0 0 1-.947-.947c-.133-.322-.133-.73-.133-1.545"/></svg>